<?xml version="1.0" encoding="UTF-8"?><svg xmlns="http://www.w3.org/2000/svg" xmlns:xlink="http://www.w3.org/1999/xlink" viewBox="0 0 589.78 680.79"><defs><style>.cls-1{fill:#55b848;}.cls-2{fill:#1082a9;}.cls-3{opacity:.4;}.cls-3,.cls-4{mix-blend-mode:multiply;}.cls-5{fill:#f9a11b;}.cls-6{fill:#e0195d;}.cls-7{fill:#d9166f;}.cls-8{fill:#f16522;}.cls-9{fill:#6b2c84;}.cls-10{fill:#4b2b7f;}.cls-11{fill:#0392c0;}.cls-12{fill:#2e2e80;}.cls-13{fill:#f16922;}.cls-14{fill:#a9cf37;}.cls-15{fill:#eb4724;}.cls-16{fill:#942580;}.cls-17{fill:#c71f4c;}.cls-18{fill:#2e3191;}.cls-19{fill:url(#White_Black_2);}.cls-20{isolation:isolate;}.cls-21{fill:#cf167b;}.cls-22{fill:#1284c6;}.cls-23{fill:#204298;}.cls-24{fill:#752980;}.cls-25{fill:#852780;}.cls-26{fill:#27ab7e;}.cls-27{fill:#f27021;}.cls-28{fill:#c51c75;}.cls-29{fill:#9dcb3b;}.cls-30{fill:#b51f7e;}.cls-31{fill:#80287f;}.cls-32{fill:#1450a2;}.cls-33{fill:#a8217b;}.cls-34{fill:#362e82;}.cls-35{fill:#097ec2;}.cls-36{fill:#b7d333;}.cls-37{fill:#e61e2b;}.cls-38{fill:#ec6424;}.cls-39{fill:#ef5323;}.cls-40{fill:#1761ad;}.cls-41{fill:#ebb01f;}.cls-42{fill:#d41a61;}.cls-43{fill:#14a98d;}.cls-44{fill:#652a7f;}.cls-45{fill:#0b63af;}.cls-46{fill:#e9d418;}.cls-47{fill:#018ab5;}.cls-48{fill:#1bae87;}.cls-49{fill:#a4cd39;}.cls-50{fill:#253d8d;}.cls-51{fill:#92465c;}.cls-52{fill:#f37b20;}.cls-53{fill:#f3b21b;}.cls-4{fill:url(#White_Black_2-2);opacity:.6;}.cls-54{fill:#ed2f24;}.cls-55{fill:#2d3184;}.cls-56{clip-path:url(#clippath);}.cls-57{fill:#8dc63f;}.cls-58{fill:#75bf43;}.cls-59{fill:none;}.cls-60{fill:#3c2d80;}.cls-61{fill:#f6931d;}.cls-62{fill:#f5851f;}.cls-63{fill:#a02380;}.cls-64{fill:#134a9c;}.cls-65{fill:#79c043;}.cls-66{fill:#d2cd28;}.cls-67{fill:#eebd1b;}.cls-68{fill:#93c83d;}.cls-69{fill:#283a8a;}.cls-70{fill:#e51b45;}.cls-71{fill:#115eab;}.cls-72{fill:#0473ba;}.cls-73{fill:#a12276;}.cls-74{fill:#176fb7;}.cls-75{fill:#0ba58f;}.cls-76{fill:#e93225;}.cls-77{fill:#296199;}.cls-78{fill:#dd1c45;}.cls-79{fill:#e08e26;}.cls-80{fill:#bad531;}.cls-81{fill:#214293;}.cls-82{fill:#4d2b7f;}.cls-83{fill:#592d8b;}.cls-84{fill:#28489d;}.cls-85{fill:#2e3082;}.cls-86{fill:#52856e;}.cls-87{fill:#ee4723;}.cls-88{fill:#008fbd;}.cls-89{fill:#010101;}.cls-90{fill:#532c85;}.cls-91{fill:#c21d6a;}.cls-92{fill:#e51c43;}</style><clipPath id="clippath"><path class="cls-59" d="m509.54,453.52c17.4-33.66,26.98-72.27,26.98-114.27,0-144.93-112.88-251.54-268.26-251.54S0,193.62,0,339.25s112.88,248.75,268.26,248.75h321.52v-54.22c0-44.33-35.93-80.26-80.24-80.26Zm-239.19,0c-.7,0-1.39-.04-2.09-.04-55.52-1.15-102.43-48.86-102.43-114.92s48.77-116.36,104.52-116.36,100.34,49.47,100.34,116.36-44.59,114.97-100.34,114.97Z"/></clipPath><linearGradient id="White_Black_2" x1="268.94" y1="282.37" x2="268.94" y2="554.78" gradientUnits="userSpaceOnUse"><stop offset="0" stop-color="#fff"/><stop offset="1" stop-color="#231f20"/></linearGradient><linearGradient id="White_Black_2-2" x1="403.44" y1="215.92" x2="403.44" y2="447.1" xlink:href="#White_Black_2"/></defs><g class="cls-20"><g id="Layer_2"><g id="Layer_1-2"><g><g><g class="cls-56"><g><polygon class="cls-21" points="-15.39 290.84 -12.27 293.95 31.61 250.07 -12.27 206.19 -15.39 209.31 -15.39 290.84"/><rect class="cls-7" x=".58" y="175.16" width="62.06" height="62.06" transform="translate(-136.54 82.74) rotate(-45)"/><rect class="cls-6" x="44.46" y="131.28" width="62.06" height="62.06" transform="translate(-92.66 100.91) rotate(-45)"/><rect class="cls-70" x="88.34" y="87.4" width="62.06" height="62.06" transform="translate(-48.78 119.1) rotate(-45)"/><polygon class="cls-37" points="163.25 30.67 119.37 74.55 163.25 118.43 207.13 74.55 163.25 30.67"/><polygon class="cls-76" points="166.35 27.57 163.25 30.67 207.13 74.55 251.01 30.67 247.91 27.57 166.35 27.57"/><polygon class="cls-15" points="247.91 27.57 251.01 30.67 254.11 27.57 247.91 27.57"/><polygon class="cls-63" points="-15.39 378.6 -12.27 381.71 31.61 337.83 -12.27 293.95 -15.39 297.07 -15.39 378.6"/><rect class="cls-30" x=".58" y="262.92" width="62.06" height="62.06" transform="translate(-198.6 108.45) rotate(-45)"/><rect class="cls-28" x="44.46" y="219.04" width="62.06" height="62.06" transform="translate(-154.72 126.62) rotate(-45)"/><rect class="cls-42" x="88.34" y="175.17" width="62.05" height="62.05" transform="translate(-110.84 144.8) rotate(-45)"/><polygon class="cls-92" points="163.25 118.43 119.37 162.31 163.25 206.19 207.13 162.31 163.25 118.43"/><rect class="cls-54" x="176.1" y="87.4" width="62.06" height="62.06" transform="translate(-23.08 181.15) rotate(-45)"/><rect class="cls-39" x="219.98" y="43.52" width="62.06" height="62.06" transform="translate(20.8 199.32) rotate(-45)"/><polygon class="cls-13" points="254.11 27.57 251.01 30.67 294.89 74.55 338.77 30.67 335.68 27.57 254.11 27.57"/><polygon class="cls-8" points="335.68 27.57 338.77 30.67 341.87 27.57 335.68 27.57"/><polygon class="cls-44" points="-15.39 466.36 -12.27 469.48 31.61 425.59 -12.27 381.71 -15.39 384.83 -15.39 466.36"/><rect class="cls-31" x=".58" y="350.68" width="62.06" height="62.06" transform="translate(-260.65 134.15) rotate(-45)"/><rect class="cls-16" x="44.46" y="306.8" width="62.06" height="62.06" transform="translate(-216.76 152.31) rotate(-45)"/><polygon class="cls-33" points="119.37 250.07 75.49 293.95 119.37 337.83 163.25 293.96 119.37 250.07"/><rect class="cls-91" x="132.22" y="219.05" width="62.06" height="62.06" transform="translate(-129.02 188.7) rotate(-45)"/><rect class="cls-78" x="176.1" y="175.16" width="62.06" height="62.06" transform="translate(-85.13 206.84) rotate(-45)"/><rect class="cls-87" x="219.98" y="131.28" width="62.06" height="62.06" transform="translate(-41.25 225.04) rotate(-45)"/><rect class="cls-27" x="263.86" y="87.4" width="62.06" height="62.06" transform="translate(2.63 243.22) rotate(-45)"/><rect class="cls-62" x="307.75" y="43.52" width="62.06" height="62.06" transform="translate(46.5 261.37) rotate(-45)"/><polygon class="cls-52" points="341.87 27.57 338.77 30.67 382.66 74.55 426.54 30.67 423.44 27.57 341.87 27.57"/><rect class="cls-10" x=".58" y="438.45" width="62.06" height="62.06" transform="translate(-322.72 159.87) rotate(-45)"/><rect class="cls-44" x="44.46" y="394.56" width="62.06" height="62.06" transform="translate(-278.83 178.03) rotate(-45)"/><rect class="cls-24" x="88.34" y="350.68" width="62.06" height="62.06" transform="translate(-234.95 196.2) rotate(-45)"/><polygon class="cls-25" points="163.25 293.96 119.37 337.83 163.25 381.71 207.13 337.83 163.25 293.96"/><rect class="cls-73" x="176.1" y="262.93" width="62.06" height="62.05" transform="translate(-147.19 232.55) rotate(-45)"/><path class="cls-17" d="m294.6,249.79l-15.34-15.34c.63,7.01-3.58,14.55-12.65,14.55-16.97,0-16.94-26.33,0-26.33.31,0,.61.03.91.04l-16.52-16.52-43.88,43.88,43.88,43.88,43.76-43.75c-.05-.14-.11-.27-.16-.41Z"/><rect class="cls-5" x="351.63" y="87.4" width="62.06" height="62.06" transform="translate(28.34 305.28) rotate(-45)"/><polygon class="cls-61" points="429.17 28.04 382.4 74.8 426.29 118.68 473.04 71.91 429.17 28.04"/><rect class="cls-60" x="44.46" y="482.33" width="62.06" height="62.06" transform="translate(-340.87 203.71) rotate(-45)"/><polygon class="cls-82" points="119.37 425.59 75.49 469.48 119.37 513.35 163.25 469.48 119.37 425.59"/><rect class="cls-90" x="132.22" y="394.56" width="62.06" height="62.06" transform="translate(-253.14 240.13) rotate(-45.01)"/><rect class="cls-83" x="176.1" y="350.68" width="62.06" height="62.06" transform="translate(-209.24 258.25) rotate(-45)"/><rect class="cls-9" x="219.98" y="306.8" width="62.06" height="62.06" transform="translate(-165.36 276.41) rotate(-45)"/><path class="cls-51" d="m302.89,258.07c-3.47-1-5.9-3.32-7.32-6.18-.31-.54-.57-1.11-.8-1.7l-43.76,43.75,43.88,43.88,43.88-43.88-35.88-35.88Z"/><path class="cls-79" d="m338.77,206.19l-26.5,26.5c4.99,2.21,7.39,7.44,7.22,12.57.09,6.64-4.14,13.35-12.7,13.35-1.43,0-2.72-.2-3.91-.54l35.88,35.88,43.88-43.88-43.88-43.88Z"/><rect class="cls-41" x="351.63" y="175.16" width="62.06" height="62.06" transform="translate(-33.72 330.96) rotate(-45)"/><rect class="cls-67" x="395.51" y="131.28" width="62.05" height="62.05" transform="translate(10.16 349.15) rotate(-45)"/><polygon class="cls-53" points="470.41 74.55 426.54 118.43 470.41 162.31 514.29 118.43 470.41 74.55"/><rect class="cls-12" x="88.34" y="526.21" width="62.06" height="62.06" transform="translate(-359.07 247.63) rotate(-45)"/><polygon class="cls-34" points="163.25 469.48 119.37 513.35 163.25 557.24 207.13 513.35 163.25 469.48"/><rect class="cls-18" x="176.1" y="438.45" width="62.06" height="62.06" transform="translate(-271.3 283.96) rotate(-45)"/><rect class="cls-84" x="219.98" y="394.56" width="62.06" height="62.06" transform="translate(-227.43 302.16) rotate(-45)"/><rect class="cls-77" x="263.86" y="350.68" width="62.06" height="62.06" transform="translate(-183.54 320.32) rotate(-45)"/><rect class="cls-86" x="307.75" y="306.8" width="62.06" height="62.06" transform="translate(-139.66 338.46) rotate(-45)"/><rect class="cls-66" x="395.51" y="219.05" width="62.05" height="62.05" transform="translate(-51.9 374.86) rotate(-45)"/><rect class="cls-46" x="483.26" y="131.28" width="62.06" height="62.06" transform="translate(35.85 411.19) rotate(-45)"/><polygon class="cls-85" points="163.25 557.24 119.37 601.12 163.25 644.99 207.13 601.12 163.25 557.24"/><rect class="cls-55" x="176.1" y="526.21" width="62.06" height="62.06" transform="translate(-333.36 309.67) rotate(-45)"/><rect class="cls-53" x="483.26" y="43.52" width="62.06" height="62.06" transform="translate(97.9 385.46) rotate(-45)"/><polygon class="cls-53" points="517.38 27.57 514.29 30.67 558.18 74.55 602.05 30.67 598.96 27.57 517.38 27.57"/><rect class="cls-23" x="219.98" y="482.33" width="62.06" height="62.06" transform="translate(-289.47 327.84) rotate(-45)"/><rect class="cls-45" x="263.86" y="438.45" width="62.06" height="62.06" transform="translate(-245.6 346.04) rotate(-45)"/><polygon class="cls-36" points="602.05 206.19 605.17 203.07 605.17 121.55 602.05 118.43 558.18 162.31 602.05 206.19"/><rect class="cls-2" x="307.74" y="394.56" width="62.06" height="62.06" transform="translate(-201.72 364.2) rotate(-45)"/><rect class="cls-26" x="351.63" y="350.68" width="62.06" height="62.06" transform="translate(-157.83 382.37) rotate(-45)"/><polygon class="cls-1" points="426.54 293.96 382.66 337.83 426.54 381.71 470.41 337.83 426.54 293.96"/><polygon class="cls-58" points="470.41 250.07 426.54 293.96 470.41 337.83 514.29 293.95 470.41 250.07"/><rect class="cls-68" x="483.26" y="219.04" width="62.06" height="62.06" transform="translate(-26.2 436.9) rotate(-45)"/><rect class="cls-14" x="527.15" y="175.16" width="62.06" height="62.06" transform="translate(17.68 455.07) rotate(-45)"/><polygon class="cls-69" points="247.87 648.14 251.01 644.99 207.13 601.12 163.25 644.99 166.39 648.14 247.87 648.14"/><rect class="cls-50" x="219.98" y="570.09" width="62.05" height="62.05" transform="translate(-351.53 353.54) rotate(-45)"/><polygon class="cls-61" points="511.2 27.57 514.29 30.67 517.38 27.57 511.2 27.57"/><rect class="cls-32" x="263.86" y="526.21" width="62.06" height="62.06" transform="translate(-307.66 371.75) rotate(-45)"/><rect class="cls-72" x="307.75" y="482.33" width="62.06" height="62.06" transform="translate(-263.77 389.87) rotate(-45)"/><rect class="cls-47" x="351.63" y="438.45" width="62.06" height="62.06" transform="translate(-219.89 408.1) rotate(-45)"/><rect class="cls-48" x="395.51" y="394.57" width="62.06" height="62.06" transform="translate(-176.01 426.28) rotate(-45)"/><polygon class="cls-1" points="470.41 337.83 426.54 381.71 470.41 425.59 514.29 381.71 470.41 337.83"/><rect class="cls-57" x="483.26" y="306.8" width="62.06" height="62.06" transform="translate(-88.26 462.56) rotate(-45)"/><rect class="cls-49" x="527.15" y="262.93" width="62.05" height="62.06" transform="translate(-44.37 480.77) rotate(-45)"/><polygon class="cls-29" points="602.05 293.96 605.17 290.84 605.17 209.31 602.05 206.19 558.17 250.07 602.05 293.96"/><polygon class="cls-81" points="254.15 648.14 251.01 644.99 247.87 648.14 254.15 648.14"/><polygon class="cls-64" points="335.63 648.14 338.77 644.99 294.89 601.12 251.01 644.99 254.15 648.14 335.63 648.14"/><rect class="cls-40" x="307.75" y="570.09" width="62.06" height="62.06" transform="translate(-325.82 415.59) rotate(-45)"/><rect class="cls-35" x="351.63" y="526.21" width="62.06" height="62.06" transform="translate(-281.95 433.81) rotate(-45)"/><polygon class="cls-88" points="426.54 469.48 382.66 513.35 426.54 557.24 470.41 513.35 426.54 469.48"/><polygon class="cls-43" points="470.41 425.59 426.54 469.48 470.41 513.35 514.29 469.48 470.41 425.59"/><rect class="cls-65" x="483.26" y="394.56" width="62.06" height="62.06" transform="translate(-150.31 488.31) rotate(-45)"/><rect class="cls-49" x="527.15" y="350.68" width="62.06" height="62.06" transform="translate(-106.43 506.48) rotate(-45)"/><polygon class="cls-29" points="602.05 381.71 605.17 378.6 605.17 297.07 602.05 293.96 558.17 337.83 602.05 381.71"/><polygon class="cls-71" points="341.91 648.14 338.77 644.99 335.63 648.14 341.91 648.14"/><polygon class="cls-74" points="423.39 648.14 426.54 644.99 382.66 601.12 338.77 644.99 341.91 648.14 423.39 648.14"/><polygon class="cls-22" points="426.54 557.24 382.66 601.12 426.54 644.99 470.41 601.12 426.54 557.24"/><polygon class="cls-11" points="470.41 513.35 426.54 557.24 470.41 601.12 514.29 557.24 470.41 513.35"/><rect class="cls-75" x="483.26" y="482.33" width="62.06" height="62.06" transform="translate(-212.36 513.97) rotate(-45)"/><rect class="cls-68" x="527.15" y="438.45" width="62.06" height="62.06" transform="translate(-168.48 532.21) rotate(-45)"/><polygon class="cls-80" points="602.05 469.48 605.17 466.36 605.17 384.83 602.05 381.71 558.17 425.59 602.05 469.48"/><polygon class="cls-22" points="429.68 648.14 426.53 644.99 423.38 648.14 429.68 648.14"/><polygon class="cls-22" points="511.14 648.14 514.29 644.99 470.41 601.11 426.53 644.99 429.68 648.14 511.14 648.14"/><polygon class="cls-22" points="514.29 557.23 470.41 601.11 514.29 644.99 558.17 601.11 514.29 557.23"/><rect class="cls-75" x="527.14" y="526.2" width="62.06" height="62.06" transform="translate(-230.54 557.87) rotate(-45)"/><polygon class="cls-14" points="602.05 557.23 605.17 554.1 605.17 472.6 602.05 469.47 558.17 513.35 602.05 557.23"/><polygon class="cls-22" points="517.43 648.14 514.29 644.99 511.14 648.14 517.43 648.14"/><polygon class="cls-22" points="598.9 648.14 602.05 644.99 558.17 601.11 514.29 644.99 517.43 648.14 598.9 648.14"/><polygon class="cls-75" points="602.05 644.99 605.17 641.87 605.17 560.35 602.05 557.23 558.17 601.11 602.05 644.99"/><polygon class="cls-52" points="423.44 27.57 426.54 30.67 429.63 27.57 423.44 27.57"/><polygon class="cls-6" points="-15.39 115.31 -12.09 118.61 31.79 74.73 -12.09 30.85 -15.39 34.15 -15.39 115.31"/><polygon class="cls-37" points="-8.82 27.57 -12.09 30.85 31.79 74.73 75.67 30.85 72.4 27.57 -8.82 27.57"/><polygon class="cls-37" points="72.4 27.57 75.67 30.85 78.94 27.57 72.4 27.57"/><polygon class="cls-6" points="-15.39 203.07 -12.09 206.38 31.79 162.49 -12.09 118.61 -15.39 121.91 -15.39 203.07"/><polygon class="cls-7" points="31.79 74.73 -12.09 118.61 31.79 162.49 75.67 118.61 31.79 74.73"/><rect class="cls-37" x="44.64" y="43.7" width="62.06" height="62.06" transform="translate(-30.68 75.4) rotate(-45)"/><polygon class="cls-37" points="78.94 27.57 75.67 30.85 119.55 74.73 163.43 30.85 160.15 27.57 78.94 27.57"/><polygon class="cls-37" points="160.15 27.57 163.43 30.85 166.71 27.57 160.15 27.57"/><polygon class="cls-60" points="-15.39 554.11 -12.28 557.24 31.61 513.35 -12.27 469.48 -15.39 472.6 -15.39 554.11"/><polygon class="cls-60" points="-15.39 641.88 -12.27 644.99 31.61 601.12 -12.28 557.24 -15.39 560.35 -15.39 641.88"/><rect class="cls-60" x=".58" y="526.21" width="62.06" height="62.06" transform="translate(-384.77 185.56) rotate(-45)"/><polygon class="cls-85" points="72.35 648.14 75.49 644.99 31.61 601.12 -12.27 644.99 -9.13 648.14 72.35 648.14"/><rect class="cls-85" x="44.46" y="570.09" width="62.05" height="62.05" transform="translate(-402.93 229.43) rotate(-45)"/><polygon class="cls-85" points="78.63 648.14 75.49 644.99 72.35 648.14 78.63 648.14"/><polygon class="cls-85" points="160.11 648.14 163.25 644.99 119.37 601.12 75.49 644.99 78.63 648.14 160.11 648.14"/><polygon class="cls-85" points="166.39 648.14 163.25 644.99 160.11 648.14 166.39 648.14"/></g></g><g class="cls-3"><path class="cls-19" d="m267.54,453.52h2.81c-.94,0-1.87-.05-2.81-.07v.07Z"/></g><path class="cls-4" d="m411.18,123.07l-98.75,109.35c34.5,17.81,58.26,57.32,58.26,106.13,0,66.89-44.59,114.97-100.34,114.97h239.19c17.4-33.66,26.98-72.28,26.98-114.27,0-94.86-48.36-173.3-125.35-216.18Z"/><rect class="cls-38" x="351.04" y="85.76" width="62.06" height="62.06" transform="translate(29.32 304.38) rotate(-45)"/><polygon class="cls-61" points="440.87 16.63 394.11 63.39 437.99 107.28 484.74 60.51 440.87 16.63"/><polygon class="cls-61" points="457.72 0 454.62 3.1 498.49 46.98 542.38 3.1 539.29 0 457.72 0"/><polygon class="cls-46" points="505.49 128.09 461.6 171.97 505.49 215.85 549.36 171.97 505.49 128.09"/><polygon class="cls-46" points="565.59 159.41 568.71 156.3 568.71 74.77 565.59 71.65 521.71 115.53 565.59 159.41"/><path class="cls-61" d="m311.49,232.39c.95.34,1.8.79,2.58,1.31l33.02-33.03-45.33-45.33-51.29,51.29,16.03,16.03s.07,0,.11,0c.72,0,1.39.06,2.05.15,14.33-1.34,27.49,2.49,40.66,8.17.82.35,1.52.85,2.17,1.4Z"/></g><g><path class="cls-89" d="m210.68,680.79v-.07c-5.28-2.68-7.28-3.87-10.11-6.17-3.05-2.45-4.98-4.61-9.22-10.18-6.62-.89-11-3.2-15.09-7.8-4.09-4.61-6.61-11.22-6.61-17.39,0-13.97,10.93-25.49,24.01-25.49s23.78,11.59,23.78,25.42c0,8.99-4.83,17.76-12.26,22.22-1.93,1.19-3.2,1.71-6.39,2.6,5.13,6.09,10.48,10.26,13.23,10.26,1.11,0,2.23-.59,4.91-2.6l1.71,2.08-7.95,7.13Zm-16.95-63.25c-9.74,0-16.72,8.92-16.72,21.55s6.99,21.63,16.65,21.63,16.43-9.14,16.43-21.63-6.91-21.55-16.35-21.55Z"/><path class="cls-89" d="m269.48,617.32v28.32c0,7.95-2.82,13.08-8.99,16.43-3.12,1.63-6.69,2.53-10.33,2.53-10.78,0-18.73-7.13-18.73-16.87v-30.4h-5.57v-2.75h17.69v2.75h-5.57v28.09c0,8.99,5.28,14.87,13.53,14.87s14.2-6.02,14.2-14.94v-28.02h-5.57v-2.75h14.94v2.75h-5.57Z"/><path class="cls-89" d="m309.69,663.62v-2.75h5.95l-5.2-13.45h-19.03l-5.43,13.38h6.17v2.82h-14.2v-2.82h3.86l19.32-47.79h2.68l18.58,47.79h4.24v2.82h-16.95Zm-8.47-40.58l-8.4,20.89h16.35l-7.95-20.89Z"/><path class="cls-89" d="m330.8,663.62v-2.75h5.58v-43.55h-5.58v-2.75h17.69v2.75h-5.57v42.96h18.28v-6.54h3.42v9.89h-33.82Z"/><path class="cls-89" d="m368.78,663.62v-2.75h5.58v-43.55h-5.58v-2.75h17.69v2.75h-5.57v43.55h5.57v2.75h-17.69Z"/><path class="cls-89" d="m416.8,663.62h-21.85v-2.75h5.58v-43.55h-5.58v-2.75h21.93c13.38,0,24.3,11,24.3,24.45s-10.7,24.6-24.38,24.6Zm-.67-45.26h-9.07v41.55h8.92c10.18,0,17.84-8.99,17.84-20.81s-7.88-20.74-17.69-20.74Z"/><path class="cls-89" d="m475.82,663.62v-2.75h5.95l-5.2-13.45h-19.03l-5.43,13.38h6.17v2.82h-14.2v-2.82h3.87l19.32-47.79h2.68l18.58,47.79h4.24v2.82h-16.95Zm-8.47-40.58l-8.4,20.89h16.35l-7.95-20.89Z"/><path class="cls-89" d="m518.78,663.62h-21.85v-2.75h5.58v-43.55h-5.58v-2.75h21.93c13.38,0,24.3,11,24.3,24.45s-10.7,24.6-24.38,24.6Zm-.67-45.26h-9.07v41.55h8.92c10.18,0,17.84-8.99,17.84-20.81s-7.88-20.74-17.69-20.74Z"/><path class="cls-89" d="m550.45,663.62v-2.75h5.58v-43.55h-5.58v-2.75h29.66v-2.08h3.42v11.82h-3.34v-6.32h-17.62v19.03h14.05v-5.57l3.42-.07v14.64l-3.42.07v-5.72h-14.05v19.92h18.28v-6.54h3.42v9.89h-33.82Z"/></g></g></g></g></g></svg>