<?xml version="1.0" encoding="utf-8"?>
<!-- Generator: Adobe Illustrator 26.3.1, SVG Export Plug-In . SVG Version: 6.00 Build 0)  -->
<svg version="1.1" id="Layer_1" xmlns="http://www.w3.org/2000/svg" xmlns:xlink="http://www.w3.org/1999/xlink" x="0px" y="0px"
	 viewBox="0 0 595.28 413.02" style="enable-background:new 0 0 595.28 413.02;" xml:space="preserve">
<style type="text/css">
	.st0{fill:#034150;}
	.st1{fill:#FFFFFF;}
	.st2{font-family:'Arial-Black';}
	.st3{font-size:9px;}
	.st4{fill:#135A6C;}
	.st5{font-size:8px;}
	.st6{fill:none;stroke:#000000;stroke-miterlimit:5;stroke-dasharray:5;}
	.st7{fill:none;stroke:#000000;stroke-miterlimit:5;}
</style>
<g>
	<rect x="37.78" y="179.72" class="st0" width="121.3" height="19.96"/>
	<text transform="matrix(1 0 0 1 49.6089 192.2374)" class="st1 st2 st3">Internacionalização</text>
	<rect x="54.65" y="199.87" class="st4" width="87.78" height="19.96"/>
	<text transform="matrix(1 0 0 1 71.0519 211.6897)" class="st1 st2 st5">Referencial 8</text>
	<rect x="213" y="182.59" class="st0" width="118.22" height="19.45"/>
	<rect x="229.87" y="202.49" class="st4" width="87.78" height="19.96"/>
	<rect x="210.35" y="234.41" class="st0" width="121.3" height="26.49"/>
	<rect x="227.22" y="261.1" class="st4" width="87.78" height="19.96"/>
	<rect x="379.48" y="179.07" class="st0" width="121.3" height="19.96"/>
	<rect x="384.96" y="199.75" class="st4" width="110.96" height="32.75"/>
	<rect x="192.35" y="25.77" class="st0" width="162.39" height="35.54"/>
	<rect x="214.93" y="61.87" class="st4" width="117.52" height="25.62"/>
	<text transform="matrix(1 0 0 1 212.2635 43.4069)"><tspan x="0" y="0" class="st1 st2 st3">Planeamento Estratégico</tspan><tspan x="32.5" y="10.8" class="st1 st2 st3">Operacional</tspan></text>
	<text transform="matrix(1 0 0 1 223.5246 76.2071)" class="st1 st2 st5">Referencial 1/ENQA 1.1</text>
	<rect x="445.04" y="25.47" class="st0" width="133.13" height="35.54"/>
	<text transform="matrix(1 0 0 1 478.7939 41.9439)"><tspan x="0" y="0" class="st1 st2 st3">Comunicação</tspan><tspan x="2.51" y="10.8" class="st1 st2 st3">Institucional</tspan></text>
	<rect x="457.09" y="61.63" class="st4" width="111.13" height="22.58"/>
	<text transform="matrix(0.8652 0 0 1 468.0121 75.0571)" class="st1 st2 st5">Referencial 12/ENQA 1.8</text>
	<text transform="matrix(1 0 0 1 242.5599 195.6243)" class="st1 st2 st3">Investigação</text>
	<text transform="matrix(1 0 0 1 245.0029 215.0767)" class="st1 st2 st5">Referencial 6</text>
	<text transform="matrix(1 0 0 1 389.5063 193.1459)" class="st1 st2 st3">Estrutura de Suporte</text>
	<text transform="matrix(1 0 0 1 390.0362 213.5983)"><tspan x="0" y="0" class="st1 st2 st5">Referencial 9/ENQA 1.5</tspan><tspan x="0" y="9.6" class="st1 st2 st5">Referencial 9/ENQA 1.5</tspan></text>
	<text transform="matrix(1 0 0 1 242.1072 246.4068)"><tspan x="0" y="0" class="st1 st2 st3">Colaboração</tspan><tspan x="-11.26" y="10.8" class="st1 st2 st3">com a Sociedade</tspan></text>
	<text transform="matrix(1 0 0 1 245.1667 272.8592)" class="st1 st2 st5">Referencial 7</text>
	<rect x="193.5" y="310.55" class="st0" width="162.39" height="35.54"/>
	<rect x="142.96" y="346.22" class="st4" width="257.74" height="50.98"/>
	<text transform="matrix(1 0 0 1 231.6656 327.1841)"><tspan x="0" y="0" class="st1 st2 st3">Medição, Análise</tspan><tspan x="16.25" y="10" class="st1 st2 st3">e Melhoria</tspan></text>
	<text transform="matrix(1 0 0 1 156.2042 363.5125)"><tspan x="0" y="0" class="st1 st2 st5">Referencial 5/ENQA 1.9</tspan><tspan x="0" y="11.6" class="st1 st2 st5">Referencial 9/ENQA 1.5</tspan><tspan x="-2.67" y="23.2" class="st1 st2 st5">Referencial 10/ENQA 1.6</tspan></text>
	<text transform="matrix(1 0 0 1 305.1022 361.4512)"><tspan x="0" y="0" class="st1 st2 st5">Referencial 6</tspan><tspan x="-24.45" y="11.6" class="st1 st2 st5">Referencial 11/ENQA 1.7</tspan><tspan x="-27.11" y="23.2" class="st1 st2 st5">Referencial 13/ENQA 1.10</tspan></text>
	<rect x="213.29" y="132.24" class="st4" width="117.52" height="42"/>
	<text transform="matrix(1 0 0 1 221.4554 144.0602)"><tspan x="0" y="0" class="st1 st2 st5">Referencial 2/ENQA 1.2</tspan><tspan x="0" y="12" class="st1 st2 st5">Referencial 3/ENQA 1.3</tspan><tspan x="0" y="24" class="st1 st2 st5">Referencial 4/ENQA 1.4</tspan></text>
	<rect x="194.3" y="102.46" class="st6" width="156.13" height="189"/>
	<g>
		<g>
			<line class="st7" x1="272.26" y1="306.72" x2="272.26" y2="291.02"/>
			<g>
				<path d="M272.26,306.32c-1.04-1.04-3.11-1.54-4.54-1.58c1.92,1.43,3.6,3.29,4.54,5.55c0.9-2.25,2.68-4.03,4.54-5.55
					C275.27,304.86,273.41,305.23,272.26,306.32z"/>
			</g>
		</g>
	</g>
	<g>
		<g>
			<line class="st7" x1="442.35" y1="43.37" x2="355.36" y2="43.37"/>
			<g>
				<path d="M441.95,43.37c-1.04,1.04-1.54,3.11-1.58,4.54c1.43-1.92,3.29-3.6,5.55-4.54c-2.25-0.9-4.03-2.68-5.55-4.54
					C440.49,40.36,440.86,42.22,441.95,43.37z"/>
			</g>
		</g>
	</g>
	<g>
		<g>
			<line class="st7" x1="435.39" y1="173.63" x2="435.39" y2="60.19"/>
			<g>
				<path d="M435.39,173.23c-1.04-1.04-3.11-1.54-4.54-1.58c1.92,1.43,3.6,3.29,4.54,5.55c0.9-2.25,2.68-4.03,4.54-5.55
					C438.4,171.77,436.54,172.15,435.39,173.23z"/>
			</g>
		</g>
	</g>
	<line class="st7" x1="354.13" y1="60.37" x2="435.52" y2="60.37"/>
	<g>
		<g>
			<line class="st7" x1="191.92" y1="191.54" x2="159.09" y2="191.54"/>
			<g>
				<path d="M191.52,191.54c-1.04,1.04-1.54,3.11-1.58,4.54c1.43-1.92,3.29-3.6,5.55-4.54c-2.25-0.9-4.03-2.68-5.55-4.54
					C190.05,188.53,190.43,190.4,191.52,191.54z"/>
			</g>
		</g>
	</g>
	<g>
		<g>
			<line class="st7" x1="98.04" y1="175.42" x2="98.04" y2="60.32"/>
			<g>
				<path d="M98.04,175.01c-1.04-1.04-3.11-1.54-4.54-1.58c1.92,1.43,3.6,3.29,4.54,5.55c0.9-2.25,2.68-4.03,4.54-5.55
					C101.05,173.55,99.19,173.93,98.04,175.01z"/>
			</g>
		</g>
	</g>
	<line class="st7" x1="98.43" y1="60.59" x2="192.35" y2="60.59"/>
	<g>
		<g>
			<line class="st7" x1="187.06" y1="43.46" x2="16.74" y2="43.46"/>
			<g>
				<path d="M186.65,43.46c-1.04,1.04-1.54,3.11-1.58,4.54c1.43-1.92,3.29-3.6,5.55-4.54c-2.25-0.9-4.03-2.68-5.55-4.54
					C185.19,40.45,185.57,42.31,186.65,43.46z"/>
			</g>
		</g>
	</g>
	<line class="st7" x1="16.96" y1="43.19" x2="16.96" y2="333.15"/>
	<line class="st7" x1="537.26" y1="188.93" x2="537.26" y2="300.54"/>
	<line class="st7" x1="500.89" y1="189.43" x2="537.09" y2="189.43"/>
	<rect x="207.61" y="112.09" class="st0" width="130.3" height="19.96"/>
	<text transform="matrix(1 0 0 1 256.8977 125.6753)" class="st1 st2 st3">Ensino</text>
	<line class="st7" x1="29.52" y1="300.41" x2="537.83" y2="300.41"/>
	<line class="st7" x1="16.48" y1="333.02" x2="198.17" y2="333.02"/>
	<line class="st7" x1="29.91" y1="189.8" x2="29.91" y2="300.15"/>
	<line class="st7" x1="29.5" y1="190.22" x2="37.91" y2="190.22"/>
	<g>
		<g>
			<line class="st7" x1="354.73" y1="191.76" x2="378.22" y2="191.8"/>
			<g>
				<path d="M355.14,191.77c1.05-1.04,1.55-3.11,1.59-4.54c-1.44,1.92-3.3,3.6-5.55,4.54c2.25,0.9,4.03,2.69,5.54,4.55
					C356.59,194.78,356.22,192.91,355.14,191.77z"/>
			</g>
		</g>
	</g>
</g>
</svg>
